<?xml version="1.0" standalone="no"?>
<!DOCTYPE svg PUBLIC "-//W3C//DTD SVG 20010904//EN"
 "http://www.w3.org/TR/2001/REC-SVG-20010904/DTD/svg10.dtd">
<svg version="1.0" xmlns="http://www.w3.org/2000/svg"
 width="714.000000pt" height="714.000000pt" viewBox="0 0 714.000000 714.000000"
 preserveAspectRatio="xMidYMid meet">
<metadata>
Created by potrace 1.11, written by Peter Selinger 2001-2013
</metadata>
<g transform="translate(0.000000,714.000000) scale(0.100000,-0.100000)"
fill="#000000" stroke="none">
<path d="M1964 3758 c-852 -1475 -1549 -2688 -1549 -2696 0 -14 531 -330 539
-321 2 2 578 1000 1281 2217 l1278 2212 17 -27 c9 -16 583 -1009 1275 -2208
692 -1199 1262 -2184 1266 -2189 10 -11 544 300 543 316 -1 11 -2885 5014
-3064 5316 l-37 62 -1549 -2682z"/>
<path d="M3345 2984 c-84 -18 -236 -91 -287 -139 -177 -165 -210 -384 -85
-567 109 -159 298 -249 527 -251 229 -1 412 80 526 235 59 81 85 155 86 244 0
127 -44 228 -142 322 -146 141 -397 203 -625 156z m242 -417 c28 -8 64 -22 79
-32 l28 -18 -27 -23 c-38 -32 -99 -47 -182 -42 -75 4 -148 32 -153 58 -5 29
87 67 168 69 20 1 59 -5 87 -12z"/>
</g>
</svg>
