<?xml version="1.0" standalone="no"?>
<!DOCTYPE svg PUBLIC "-//W3C//DTD SVG 20010904//EN"
 "http://www.w3.org/TR/2001/REC-SVG-20010904/DTD/svg10.dtd">
<svg version="1.0" xmlns="http://www.w3.org/2000/svg"
 width="157.000000pt" height="157.000000pt" viewBox="0 0 157.000000 157.000000"
 preserveAspectRatio="xMidYMid meet">
<metadata>
Created by potrace 1.11, written by Peter Selinger 2001-2013
</metadata>
<g transform="translate(0.000000,157.000000) scale(0.100000,-0.100000)"
fill="#000000" stroke="none">
<path d="M1125 1369 c-80 -228 -149 -385 -166 -380 -8 2 -45 15 -83 27 -155
52 -257 56 -326 10 -82 -54 -94 -179 -19 -205 34 -12 63 6 57 35 -3 14 -11 18
-35 17 -54 -5 -49 46 9 90 47 36 119 51 181 37 71 -15 197 -70 197 -85 0 -47
-127 -287 -198 -373 -149 -182 -435 -217 -568 -70 -20 22 -42 55 -50 74 -18
44 -18 128 1 164 20 38 3 39 -24 2 -47 -67 -51 -175 -9 -259 28 -56 105 -128
166 -155 99 -44 259 -31 362 29 134 79 258 259 350 511 l22 62 37 -22 c102
-60 250 -184 281 -232 34 -56 23 -116 -22 -116 -10 0 -18 -7 -18 -16 0 -14 8
-16 46 -10 26 3 84 6 130 6 46 0 84 3 84 8 0 4 -15 14 -33 22 -39 18 -63 59
-121 210 -95 245 -206 548 -212 578 -8 37 -31 62 -39 41z m70 -398 c31 -79 55
-144 53 -146 -2 -2 -41 21 -87 50 -47 30 -97 59 -113 66 -15 6 -28 16 -28 21
0 5 13 43 30 86 16 42 34 91 40 107 l12 30 18 -36 c10 -19 44 -100 75 -178z
m-585 49 c0 -5 -2 -10 -4 -10 -3 0 -8 5 -11 10 -3 6 -1 10 4 10 6 0 11 -4 11
-10z m-30 -10 c0 -5 -2 -10 -4 -10 -3 0 -8 5 -11 10 -3 6 -1 10 4 10 6 0 11
-4 11 -10z m-20 -21 c0 -6 -4 -7 -10 -4 -5 3 -10 11 -10 16 0 6 5 7 10 4 6 -3
10 -11 10 -16z m-380 -563 c0 -3 -4 -8 -10 -11 -5 -3 -10 -1 -10 4 0 6 5 11
10 11 6 0 10 -2 10 -4z m20 -25 c0 -6 -4 -13 -10 -16 -5 -3 -10 1 -10 9 0 9 5
16 10 16 6 0 10 -4 10 -9z m435 -11 c3 -5 1 -10 -4 -10 -6 0 -11 5 -11 10 0 6
2 10 4 10 3 0 8 -4 11 -10z m-405 -15 c0 -8 -7 -15 -15 -15 -16 0 -20 12 -8
23 11 12 23 8 23 -8z m38 -12 c-2 -10 -11 -19 -21 -21 -16 -3 -17 -1 -7 17 13
25 33 28 28 4z m342 7 c0 -5 -4 -10 -10 -10 -5 0 -10 5 -10 10 0 6 5 10 10 10
6 0 10 -4 10 -10z m-32 -18 c2 -7 -3 -12 -12 -12 -9 0 -16 7 -16 16 0 17 22
14 28 -4z m-270 -9 c-5 -25 -28 -28 -28 -4 0 12 6 21 16 21 9 0 14 -7 12 -17z
m220 -7 c3 -12 -1 -17 -10 -14 -7 3 -15 13 -16 22 -3 12 1 17 10 14 7 -3 15
-13 16 -22z m-178 -6 c0 -11 -7 -20 -15 -20 -8 0 -15 9 -15 20 0 11 7 20 15
20 8 0 15 -9 15 -20z m47 4 c8 -21 -13 -42 -28 -27 -13 13 -5 43 11 43 6 0 13
-7 17 -16z m43 -9 c0 -26 -14 -33 -25 -15 -9 14 1 40 15 40 5 0 10 -11 10 -25z
m48 2 c2 -10 -3 -17 -12 -17 -10 0 -16 9 -16 21 0 24 23 21 28 -4z"/>
</g>
</svg>
